<svg xmlns="http://www.w3.org/2000/svg" width="24" height="24" viewBox="0 0 24 24" fill="none">
  <path d="M12 8.5A3.5 3.5 0 1 0 12 15.5A3.5 3.5 0 1 0 12 8.5Z" stroke="#76F1FF" stroke-width="1.8"/>
  <path d="M19 12C19 11.4 18.93 10.82 18.78 10.27L21 8.6L18.9 5.1L16.3 6.1C15.46 5.45 14.48 4.98 13.42 4.75L13 2H11L10.58 4.75C9.52 4.98 8.54 5.45 7.7 6.1L5.1 5.1L3 8.6L5.22 10.27C5.07 10.82 5 11.4 5 12C5 12.6 5.07 13.18 5.22 13.73L3 15.4L5.1 18.9L7.7 17.9C8.54 18.55 9.52 19.02 10.58 19.25L11 22H13L13.42 19.25C14.48 19.02 15.46 18.55 16.3 17.9L18.9 18.9L21 15.4L18.78 13.73C18.93 13.18 19 12.6 19 12Z" stroke="#76F1FF" stroke-width="1.3" stroke-linejoin="round" opacity="0.88"/>
</svg>
